<svg width="40" height="40" viewBox="0 0 40 40" fill="none" xmlns="http://www.w3.org/2000/svg">
<path d="M40 20C40 25.5228 37.7614 30.5228 34.1421 34.1421C30.5228 37.7614 25.5228 40 20 40C14.4772 40 9.47715 37.7614 5.85786 34.1421C2.23858 30.5228 0 25.5228 0 20C0 14.4771 2.23858 9.47712 5.85786 5.85783C9.47715 2.23855 14.4772 -3.05176e-05 20 -3.05176e-05C25.5228 -3.05176e-05 30.5228 2.23855 34.1421 5.85783C37.7614 9.47712 40 14.4771 40 20Z" fill="#4D5AE5"/>
<g clip-path="url(#clip0_8005_48)">
<path d="M31.9941 32.0001V31.9991H32.0001V23.1971C32.0001 18.8911 31.0731 15.5741 26.0391 15.5741C23.6191 15.5741 21.9951 16.9021 21.3321 18.1611H21.2621V15.9761H16.4891V31.9991H21.4591V24.0651C21.4591 21.9761 21.8551 19.9561 24.4421 19.9561C26.9911 19.9561 27.0291 22.3401 27.0291 24.1991V32.0001H31.9941Z" fill="#F4F4FD"/>
<path d="M8.39606 15.977H13.3721V32H8.39606V15.977Z" fill="#F4F4FD"/>
<path d="M10.8821 8.00003C9.29106 8.00003 8.00006 9.29103 8.00006 10.882C8.00006 12.473 9.29106 13.791 10.8821 13.791C12.4731 13.791 13.7641 12.473 13.7641 10.882C13.7631 9.29103 12.4721 8.00003 10.8821 8.00003V8.00003Z" fill="#F4F4FD"/>
</g>
<defs>
<clipPath id="clip0_8005_48">
<rect width="24" height="24" fill="white" transform="translate(8.00006 8.00003)"/>
</clipPath>
</defs>
</svg>
