<svg width="40" height="40" viewBox="0 0 40 40" fill="none" xmlns="http://www.w3.org/2000/svg">
<path d="M40 20C40 25.5228 37.7614 30.5228 34.1421 34.1421C30.5228 37.7614 25.5228 40 20 40C14.4772 40 9.47715 37.7614 5.85786 34.1421C2.23858 30.5228 0 25.5228 0 20C0 14.4771 2.23858 9.47712 5.85786 5.85783C9.47715 2.23855 14.4772 -3.05176e-05 20 -3.05176e-05C25.5228 -3.05176e-05 30.5228 2.23855 34.1421 5.85783C37.7614 9.47712 40 14.4771 40 20Z" fill="#4D5AE5"/>
<g clip-path="url(#clip0_8005_32)">
<path d="M31.9765 15.0561C31.9202 13.7809 31.714 12.9042 31.4186 12.1445C31.1139 11.3381 30.645 10.6162 30.0308 10.016C29.4306 9.40656 28.7039 8.93295 27.9069 8.63297C27.1428 8.33756 26.2707 8.13134 24.9955 8.07512C23.7107 8.01413 23.3029 8.00003 20.0444 8.00003C16.786 8.00003 16.3781 8.01413 15.0982 8.07036C13.823 8.12658 12.9463 8.33298 12.1868 8.62821C11.3802 8.93295 10.6583 9.40179 10.0581 10.016C9.44864 10.6162 8.97522 11.3429 8.67505 12.1399C8.37964 12.9042 8.17343 13.7761 8.1172 15.0513C8.05622 16.3361 8.04211 16.7439 8.04211 20.0024C8.04211 23.2608 8.05622 23.6687 8.11244 24.9487C8.16866 26.2239 8.37506 27.1006 8.67047 27.8602C8.97522 28.6666 9.44864 29.3885 10.0581 29.9887C10.6583 30.5982 11.385 31.0718 12.182 31.3718C12.9463 31.6672 13.8182 31.8734 15.0936 31.9296C16.3734 31.986 16.7814 32 20.0399 32C23.2983 32 23.7062 31.986 24.9861 31.9296C26.2614 31.8734 27.1381 31.6672 27.8975 31.3718C29.5105 30.7482 30.7857 29.473 31.4093 27.8602C31.7045 27.096 31.9109 26.2239 31.9671 24.9487C32.0233 23.6687 32.0374 23.2608 32.0374 20.0024C32.0374 16.7439 32.0327 16.3361 31.9765 15.0561ZM29.8152 24.8549C29.7636 26.027 29.5667 26.6599 29.4026 27.0819C28.9993 28.1274 28.1695 28.9572 27.1239 29.3605C26.702 29.5246 26.0645 29.7215 24.897 29.773C23.6311 29.8294 23.2514 29.8433 20.0492 29.8433C16.847 29.8433 16.4626 29.8294 15.2013 29.773C14.0292 29.7215 13.3962 29.5246 12.9743 29.3605C12.454 29.1682 11.9804 28.8635 11.596 28.465C11.1975 28.0758 10.8927 27.6069 10.7004 27.0866C10.5363 26.6647 10.3394 26.027 10.288 24.8596C10.2316 23.5938 10.2176 23.2139 10.2176 20.0117C10.2176 16.8095 10.2316 16.4251 10.288 15.164C10.3394 13.9919 10.5363 13.3589 10.7004 12.937C10.8927 12.4165 11.1975 11.9431 11.6007 11.5585C11.9897 11.1599 12.4586 10.8552 12.979 10.6631C13.401 10.499 14.0387 10.3021 15.206 10.2505C16.4719 10.1942 16.8517 10.1801 20.0538 10.1801C23.2608 10.1801 23.6404 10.1942 24.9017 10.2505C26.0738 10.3021 26.7068 10.499 27.1287 10.6631C27.649 10.8552 28.1226 11.1599 28.507 11.5585C28.9055 11.9476 29.2103 12.4165 29.4026 12.937C29.5667 13.3589 29.7636 13.9964 29.8152 15.164C29.8714 16.4298 29.8855 16.8095 29.8855 20.0117C29.8855 23.2139 29.8714 23.589 29.8152 24.8549Z" fill="#F4F4FD"/>
<path d="M20.0445 13.8371C16.6408 13.8371 13.8792 16.5985 13.8792 20.0023C13.8792 23.4062 16.6408 26.1676 20.0445 26.1676C23.4483 26.1676 26.2097 23.4062 26.2097 20.0023C26.2097 16.5985 23.4483 13.8371 20.0445 13.8371ZM20.0445 24.0016C17.8363 24.0016 16.0452 22.2106 16.0452 20.0023C16.0452 17.794 17.8363 16.0031 20.0445 16.0031C22.2528 16.0031 24.0437 17.794 24.0437 20.0023C24.0437 22.2106 22.2528 24.0016 20.0445 24.0016Z" fill="#F4F4FD"/>
<path d="M27.893 13.5934C27.893 14.3882 27.2485 15.0327 26.4535 15.0327C25.6587 15.0327 25.0142 14.3882 25.0142 13.5934C25.0142 12.7983 25.6587 12.1541 26.4535 12.1541C27.2485 12.1541 27.893 12.7983 27.893 13.5934Z" fill="#F4F4FD"/>
</g>
<defs>
<clipPath id="clip0_8005_32">
<rect width="24" height="24" fill="white" transform="translate(7.99997 8.00003)"/>
</clipPath>
</defs>
</svg>
